<svg aria-hidden="true" style="position: absolute; width: 0; height: 0; overflow: hidden;" version="1.1" xmlns="http://www.w3.org/2000/svg" xmlns:xlink="http://www.w3.org/1999/xlink">
<defs>
<symbol id="icon-Vector-1" viewBox="0 0 30 32">
<path d="M3.144 28.952c-1.729 0-3.144-1.366-3.144-3.036v-19.833c0-1.67 1.415-3.036 3.144-3.036s3.144 1.366 3.144 3.036v19.833c0 1.619-1.415 3.036-3.144 3.036z"></path>
<path d="M11.004 32c-1.729 0-3.144-1.261-3.144-2.803v-26.394c0-1.542 1.415-2.803 3.144-2.803s3.144 1.261 3.144 2.803v26.394c0 1.542-1.415 2.803-3.144 2.803z"></path>
<path d="M18.863 23.619c-1.729 0-3.144-1.286-3.144-2.857v-9.524c0-1.571 1.415-2.857 3.144-2.857s3.144 1.286 3.144 2.857v9.524c0 1.572-1.415 2.857-3.144 2.857z"></path>
<path d="M26.723 19.809c-1.729 0-3.144-1.345-3.144-2.988v-1.643c0-1.643 1.415-2.988 3.144-2.988s3.144 1.345 3.144 2.988v1.643c0 1.643-1.415 2.988-3.144 2.988z"></path>
</symbol>
</defs>
</svg>
